<?xml version="1.0" encoding="UTF-8" standalone="no"?>
<!-- Created with Inkscape (http://www.inkscape.org/) -->
<svg
   xmlns:dc="http://purl.org/dc/elements/1.1/"
   xmlns:cc="http://web.resource.org/cc/"
   xmlns:rdf="http://www.w3.org/1999/02/22-rdf-syntax-ns#"
   xmlns:svg="http://www.w3.org/2000/svg"
   xmlns="http://www.w3.org/2000/svg"
   xmlns:sodipodi="http://sodipodi.sourceforge.net/DTD/sodipodi-0.dtd"
   xmlns:inkscape="http://www.inkscape.org/namespaces/inkscape"
   id="svg1928"
   sodipodi:version="0.32"
   inkscape:version="0.44.1"
   width="576"
   height="301"
   version="1.0"
   sodipodi:docbase="E:\Bryan\Temp"
   sodipodi:docname="BlokusTiles.svg">
  <metadata
     id="metadata1933">
    <rdf:RDF>
      <cc:Work
         rdf:about="">
        <dc:format>image/svg+xml</dc:format>
        <dc:type
           rdf:resource="http://purl.org/dc/dcmitype/StillImage" />
      </cc:Work>
    </rdf:RDF>
  </metadata>
  <defs
     id="defs1931" />
  <sodipodi:namedview
     inkscape:window-height="721"
     inkscape:window-width="1024"
     inkscape:pageshadow="2"
     inkscape:pageopacity="0.0"
     guidetolerance="10.0"
     gridtolerance="10.0"
     objecttolerance="10.0"
     borderopacity="1.0"
     bordercolor="#666666"
     pagecolor="#ffffff"
     id="base"
     showgrid="true"
     gridspacingx="25px"
     gridspacingy="25px"
     inkscape:grid-points="true"
     height="301px"
     width="576px"
     gridoriginy="1px"
     inkscape:zoom="1.6319444"
     inkscape:cx="288"
     inkscape:cy="224.03191"
     inkscape:window-x="-4"
     inkscape:window-y="-4"
     inkscape:current-layer="svg1928" />
  <rect
     style="opacity:1;fill:lime;fill-opacity:1;stroke:black;stroke-width:1;stroke-linecap:butt;stroke-linejoin:miter;stroke-miterlimit:4;stroke-dasharray:none;stroke-opacity:1"
     id="rect1937"
     width="50"
     height="50"
     x="0.5"
     y="50.5" />
  <rect
     style="opacity:1;fill:lime;fill-opacity:1;stroke:black;stroke-width:1;stroke-linecap:butt;stroke-linejoin:miter;stroke-miterlimit:4;stroke-dasharray:none;stroke-opacity:1"
     id="rect2826"
     width="25"
     height="25"
     x="75.5"
     y="0.5" />
  <rect
     style="opacity:1;fill:lime;fill-opacity:1;stroke:black;stroke-width:1;stroke-linecap:butt;stroke-linejoin:miter;stroke-miterlimit:4;stroke-dasharray:none;stroke-opacity:1"
     id="rect2828"
     width="50"
     height="25"
     x="175.5"
     y="0.5" />
  <rect
     style="opacity:1;fill:lime;fill-opacity:1;stroke:black;stroke-width:1;stroke-linecap:butt;stroke-linejoin:miter;stroke-miterlimit:4;stroke-dasharray:none;stroke-opacity:1"
     id="rect2830"
     width="100"
     height="25"
     x="225.5"
     y="75.5" />
  <rect
     style="opacity:1;fill:lime;fill-opacity:1;stroke:black;stroke-width:1;stroke-linecap:butt;stroke-linejoin:round;stroke-miterlimit:4;stroke-dasharray:none;stroke-opacity:1"
     id="rect2832"
     width="75"
     height="25"
     x="425.5"
     y="0.5" />
  <rect
     style="opacity:1;fill:lime;fill-opacity:1;stroke:black;stroke-width:1;stroke-linecap:butt;stroke-linejoin:miter;stroke-miterlimit:4;stroke-dasharray:none;stroke-opacity:1"
     id="rect2834"
     width="25"
     height="125"
     x="550.5"
     y="125.5" />
  <path
     style="fill:lime;fill-opacity:1;fill-rule:evenodd;stroke:black;stroke-width:1px;stroke-linecap:butt;stroke-linejoin:miter;stroke-opacity:1"
     d="M 100.5,100.5 L 100.5,75.5 L 125.5,75.5 L 125.5,50.5 L 150.5,50.5 L 150.5,75.5 L 175.5,75.5 L 175.5,100.5 L 100.5,100.5 z "
     id="path2836" />
  <path
     style="fill:lime;fill-opacity:1;fill-rule:evenodd;stroke:black;stroke-width:1px;stroke-linecap:butt;stroke-linejoin:miter;stroke-opacity:1"
     d="M 300.5,25.5 L 300.5,0.5 L 350.5,0.5 L 350.5,50.5 L 325.5,50.5 L 325.5,25.5 L 300.5,25.5 z "
     id="path3723" />
  <path
     style="fill:lime;fill-opacity:1;fill-rule:evenodd;stroke:black;stroke-width:1px;stroke-linecap:butt;stroke-linejoin:miter;stroke-opacity:1"
     d="M 375.5,75.5 L 375.5,100.5 L 450.5,100.5 L 450.5,50.5 L 425.5,50.5 L 425.5,75.5 L 375.5,75.5 z "
     id="path5495" />
  <path
     style="fill:lime;fill-opacity:1;fill-rule:evenodd;stroke:black;stroke-width:1px;stroke-linecap:butt;stroke-linejoin:miter;stroke-opacity:1"
     d="M 500.5,75.5 L 500.5,100.5 L 550.5,100.5 L 550.5,75.5 L 575.5,75.5 L 575.5,50.5 L 525.5,50.5 L 525.5,75.5 L 500.5,75.5 z "
     id="path6382" />
  <path
     style="fill:lime;fill-opacity:1;fill-rule:evenodd;stroke:black;stroke-width:1px;stroke-linecap:butt;stroke-linejoin:miter;stroke-opacity:1"
     d="M 0.5,200.5 L 0.5,150.5 L 25.5,150.5 L 25.5,175.5 L 100.5,175.5 L 100.5,200.5 L 0.5,200.5 z "
     id="path14365" />
  <path
     style="fill:lime;fill-opacity:1;fill-rule:evenodd;stroke:black;stroke-width:1px;stroke-linecap:butt;stroke-linejoin:miter;stroke-opacity:1"
     d="M 125.5,200.5 L 125.5,175.5 L 150.5,175.5 L 150.5,125.5 L 175.5,125.5 L 175.5,175.5 L 200.5,175.5 L 200.5,200.5 L 125.5,200.5 z "
     id="path15252" />
  <path
     style="fill:lime;fill-opacity:1;fill-rule:evenodd;stroke:black;stroke-width:1px;stroke-linecap:butt;stroke-linejoin:miter;stroke-opacity:1"
     d="M 225.5,125.5 L 225.5,200.5 L 300.5,200.5 L 300.5,175.5 L 250.5,175.5 L 250.5,125.5 L 225.5,125.5 z "
     id="path16139" />
  <path
     style="fill:lime;fill-opacity:1;fill-rule:evenodd;stroke:black;stroke-width:1px;stroke-linecap:butt;stroke-linejoin:miter;stroke-opacity:1"
     d="M 325.5,200.5 L 325.5,175.5 L 350.5,175.5 L 350.5,150.5 L 425.5,150.5 L 425.5,175.5 L 375.5,175.5 L 375.5,200.5 L 325.5,200.5 z "
     id="path17913" />
  <path
     style="fill:lime;fill-opacity:1;fill-rule:evenodd;stroke:black;stroke-width:1px;stroke-linecap:butt;stroke-linejoin:miter;stroke-opacity:1"
     d="M 450.5,200.5 L 450.5,150.5 L 500.5,150.5 L 500.5,125.5 L 525.5,125.5 L 525.5,175.5 L 475.5,175.5 L 475.5,200.5 L 450.5,200.5 z "
     id="path18800" />
  <path
     style="fill:lime;fill-opacity:1;fill-rule:evenodd;stroke:black;stroke-width:1px;stroke-linecap:butt;stroke-linejoin:miter;stroke-opacity:1"
     d="M 0.5,225.5 L 0.5,300.5 L 50.5,300.5 L 50.5,250.5 L 25.5,250.5 L 25.5,225.5 L 0.5,225.5 z "
     id="path19687" />
  <path
     style="fill:lime;fill-opacity:1;fill-rule:evenodd;stroke:black;stroke-width:1px;stroke-linecap:butt;stroke-linejoin:miter;stroke-opacity:1"
     d="M 75.5,300.5 L 75.5,250.5 L 100.5,250.5 L 100.5,225.5 L 150.5,225.5 L 150.5,250.5 L 125.5,250.5 L 125.5,275.5 L 100.5,275.5 L 100.5,300.5 L 75.5,300.5 z "
     id="path20574" />
  <path
     style="fill:lime;fill-opacity:1;fill-rule:evenodd;stroke:black;stroke-width:1px;stroke-linecap:butt;stroke-linejoin:miter;stroke-opacity:1"
     d="M 225.5,275.5 L 225.5,300.5 L 175.5,300.5 L 175.5,225.5 L 225.5,225.5 L 225.5,250.5 L 200.5,250.5 L 200.5,275.5 L 225.5,275.5 z "
     id="path21461" />
  <path
     style="fill:lime;fill-opacity:1;fill-rule:evenodd;stroke:black;stroke-width:1px;stroke-linecap:butt;stroke-linejoin:miter;stroke-opacity:1"
     d="M 300.5,300.5 L 300.5,275.5 L 275.5,275.5 L 275.5,250.5 L 300.5,250.5 L 300.5,225.5 L 350.5,225.5 L 350.5,250.5 L 325.5,250.5 L 325.5,300.5 L 300.5,300.5 z "
     id="path22348" />
  <path
     style="fill:lime;fill-opacity:1;fill-rule:evenodd;stroke:black;stroke-width:1px;stroke-linecap:butt;stroke-linejoin:miter;stroke-opacity:1"
     d="M 400.5,225.5 L 400.5,250.5 L 375.5,250.5 L 375.5,275.5 L 400.5,275.5 L 400.5,300.5 L 425.5,300.5 L 425.5,275.5 L 450.5,275.5 L 450.5,250.5 L 425.5,250.5 L 425.5,225.5 L 400.5,225.5 z "
     id="path23235" />
  <path
     style="fill:lime;fill-opacity:1;fill-rule:evenodd;stroke:black;stroke-width:1px;stroke-linecap:butt;stroke-linejoin:miter;stroke-opacity:1"
     d="M 575.5,275.5 L 525.5,275.5 L 525.5,250.5 L 500.5,250.5 L 500.5,275.5 L 475.5,275.5 L 475.5,300.5 L 575.5,300.5 L 575.5,275.5 z "
     id="path24122" />
  <path
     style="fill:none;fill-rule:evenodd;stroke:black;stroke-width:1px;stroke-linecap:butt;stroke-linejoin:miter;stroke-opacity:1"
     d="M 0.5,75.5 L 50.5,75.5"
     id="path25009" />
  <path
     style="fill:none;fill-rule:evenodd;stroke:black;stroke-width:1px;stroke-linecap:butt;stroke-linejoin:miter;stroke-opacity:1"
     d="M 25.5,50.5 L 25.5,100.5"
     id="path25011" />
  <path
     style="fill:none;fill-rule:evenodd;stroke:black;stroke-width:1px;stroke-linecap:butt;stroke-linejoin:miter;stroke-opacity:1"
     d="M 125.5,100.5 L 125.5,75.5 L 150.5,75.5 L 150.5,100.5"
     id="path25013" />
  <path
     style="fill:none;fill-rule:evenodd;stroke:black;stroke-width:1px;stroke-linecap:butt;stroke-linejoin:miter;stroke-opacity:1"
     d="M 250.5,100.5 L 250.5,75.5"
     id="path25015" />
  <path
     style="fill:none;fill-rule:evenodd;stroke:black;stroke-width:1px;stroke-linecap:butt;stroke-linejoin:miter;stroke-opacity:1"
     d="M 275.5,75.5 L 275.5,100.5"
     id="path25017" />
  <path
     style="fill:none;fill-rule:evenodd;stroke:black;stroke-width:1px;stroke-linecap:butt;stroke-linejoin:miter;stroke-opacity:1"
     d="M 300.5,100.5 L 300.5,75.5"
     id="path25019" />
  <path
     style="fill:none;fill-rule:evenodd;stroke:black;stroke-width:1px;stroke-linecap:butt;stroke-linejoin:miter;stroke-opacity:1"
     d="M 325.5,0.5 L 325.5,25.5 L 350.5,25.5"
     id="path25021" />
  <path
     style="fill:none;fill-rule:evenodd;stroke:black;stroke-width:1px;stroke-linecap:butt;stroke-linejoin:miter;stroke-opacity:1"
     d="M 200.5,0.5 L 200.5,25.5"
     id="path25023" />
  <path
     style="fill:none;fill-rule:evenodd;stroke:black;stroke-width:1px;stroke-linecap:butt;stroke-linejoin:miter;stroke-opacity:1"
     d="M 450.5,0.5 L 450.5,25.5"
     id="path25025" />
  <path
     style="fill:none;fill-rule:evenodd;stroke:black;stroke-width:1px;stroke-linecap:butt;stroke-linejoin:miter;stroke-opacity:1"
     d="M 475.5,0.5 L 475.5,25.5"
     id="path25027" />
  <path
     style="fill:none;fill-rule:evenodd;stroke:black;stroke-width:1px;stroke-linecap:butt;stroke-linejoin:miter;stroke-opacity:1"
     d="M 450.5,75.5 L 425.5,75.5 L 425.5,100.5"
     id="path25029" />
  <path
     style="fill:none;fill-rule:evenodd;stroke:black;stroke-width:1px;stroke-linecap:butt;stroke-linejoin:miter;stroke-opacity:1"
     d="M 400.5,100.5 L 400.5,75.5"
     id="path25031" />
  <path
     style="fill:none;fill-rule:evenodd;stroke:black;stroke-width:1px;stroke-linecap:butt;stroke-linejoin:miter;stroke-opacity:1"
     d="M 525.5,100.5 L 525.5,75.5 L 550.5,75.5 L 550.5,50.5"
     id="path25033" />
  <path
     style="fill:none;fill-rule:evenodd;stroke:black;stroke-width:1px;stroke-linecap:butt;stroke-linejoin:miter;stroke-opacity:1"
     d="M 525.5,150.5 L 500.5,150.5 L 500.5,175.5"
     id="path25035" />
  <path
     style="fill:none;fill-rule:evenodd;stroke:black;stroke-width:1px;stroke-linecap:butt;stroke-linejoin:miter;stroke-opacity:1"
     d="M 475.5,150.5 L 475.5,175.5 L 450.5,175.5"
     id="path25037" />
  <path
     style="fill:none;fill-rule:evenodd;stroke:black;stroke-width:1px;stroke-linecap:butt;stroke-linejoin:miter;stroke-opacity:1"
     d="M 575.5,150.5 L 550.5,150.5"
     id="path25039" />
  <path
     style="fill:none;fill-rule:evenodd;stroke:black;stroke-width:1px;stroke-linecap:butt;stroke-linejoin:miter;stroke-opacity:1"
     d="M 550.5,175.5 L 575.5,175.5"
     id="path25041" />
  <path
     style="fill:none;fill-rule:evenodd;stroke:black;stroke-width:1px;stroke-linecap:butt;stroke-linejoin:miter;stroke-opacity:1"
     d="M 575.5,200.5 L 550.5,200.5"
     id="path25043" />
  <path
     style="fill:none;fill-rule:evenodd;stroke:black;stroke-width:1px;stroke-linecap:butt;stroke-linejoin:miter;stroke-opacity:1"
     d="M 550.5,225.5 L 575.5,225.5"
     id="path25045" />
  <path
     style="fill:none;fill-rule:evenodd;stroke:black;stroke-width:1px;stroke-linecap:butt;stroke-linejoin:miter;stroke-opacity:1"
     d="M 550.5,275.5 L 550.5,300.5"
     id="path25047" />
  <path
     style="fill:none;fill-rule:evenodd;stroke:black;stroke-width:1px;stroke-linecap:butt;stroke-linejoin:miter;stroke-opacity:1"
     d="M 525.5,300.5 L 525.5,275.5 L 500.5,275.5 L 500.5,300.5"
     id="path25049" />
  <path
     style="fill:none;fill-rule:evenodd;stroke:black;stroke-width:1px;stroke-linecap:butt;stroke-linejoin:miter;stroke-opacity:1"
     d="M 425.5,250.5 L 425.5,275.5 L 400.5,275.5 L 400.5,250.5 L 425.5,250.5 z "
     id="path25051" />
  <path
     style="fill:none;fill-rule:evenodd;stroke:black;stroke-width:1px;stroke-linecap:butt;stroke-linejoin:miter;stroke-opacity:1"
     d="M 400.5,150.5 L 400.5,175.5"
     id="path25053" />
  <path
     style="fill:none;fill-rule:evenodd;stroke:black;stroke-width:1px;stroke-linecap:butt;stroke-linejoin:miter;stroke-opacity:1"
     d="M 375.5,150.5 L 375.5,175.5 L 350.5,175.5 L 350.5,200.5"
     id="path25055" />
  <path
     style="fill:none;fill-rule:evenodd;stroke:black;stroke-width:1px;stroke-linecap:butt;stroke-linejoin:miter;stroke-opacity:1"
     d="M 275.5,175.5 L 275.5,200.5"
     id="path25057" />
  <path
     style="fill:none;fill-rule:evenodd;stroke:black;stroke-width:1px;stroke-linecap:butt;stroke-linejoin:miter;stroke-opacity:1"
     d="M 250.5,200.5 L 250.5,175.5 L 225.5,175.5"
     id="path25059" />
  <path
     style="fill:none;fill-rule:evenodd;stroke:black;stroke-width:1px;stroke-linecap:butt;stroke-linejoin:miter;stroke-opacity:1"
     d="M 250.5,150.5 L 225.5,150.5"
     id="path25061" />
  <path
     style="fill:none;fill-rule:evenodd;stroke:black;stroke-width:1px;stroke-linecap:butt;stroke-linejoin:miter;stroke-opacity:1"
     d="M 175.5,150.5 L 150.5,150.5"
     id="path25063" />
  <path
     style="fill:none;fill-rule:evenodd;stroke:black;stroke-width:1px;stroke-linecap:butt;stroke-linejoin:miter;stroke-opacity:1"
     d="M 175.5,200.5 L 175.5,175.5 L 150.5,175.5 L 150.5,200.5"
     id="path25065" />
  <path
     style="fill:none;fill-rule:evenodd;stroke:black;stroke-width:1px;stroke-linecap:butt;stroke-linejoin:miter;stroke-opacity:1"
     d="M 75.5,175.5 L 75.5,200.5"
     id="path25067" />
  <path
     style="fill:none;fill-rule:evenodd;stroke:black;stroke-width:1px;stroke-linecap:butt;stroke-linejoin:miter;stroke-opacity:1"
     d="M 50.5,175.5 L 50.5,200.5"
     id="path25069" />
  <path
     style="fill:none;fill-rule:evenodd;stroke:black;stroke-width:1px;stroke-linecap:butt;stroke-linejoin:miter;stroke-opacity:1"
     d="M 25.5,200.5 L 25.5,175.5 L 0.5,175.5"
     id="path25071" />
  <path
     style="fill:none;fill-rule:evenodd;stroke:black;stroke-width:1px;stroke-linecap:butt;stroke-linejoin:miter;stroke-opacity:1"
     d="M 0.5,250.5 L 25.5,250.5 L 25.5,275.5 L 0.5,275.5"
     id="path25073" />
  <path
     style="fill:none;fill-rule:evenodd;stroke:black;stroke-width:1px;stroke-linecap:butt;stroke-linejoin:miter;stroke-opacity:1"
     d="M 50.5,275.5 L 25.5,275.5 L 25.5,300.5"
     id="path25075" />
  <path
     style="fill:none;fill-rule:evenodd;stroke:black;stroke-width:1px;stroke-linecap:butt;stroke-linejoin:miter;stroke-opacity:1"
     d="M 75.5,275.5 L 100.5,275.5 L 100.5,250.5 L 125.5,250.5 L 125.5,225.5"
     id="path25077" />
  <path
     style="fill:none;fill-rule:evenodd;stroke:black;stroke-width:1px;stroke-linecap:butt;stroke-linejoin:miter;stroke-opacity:1"
     d="M 200.5,225.5 L 200.5,250.5 L 175.5,250.5"
     id="path25079" />
  <path
     style="fill:none;fill-rule:evenodd;stroke:black;stroke-width:1px;stroke-linecap:butt;stroke-linejoin:miter;stroke-opacity:1"
     d="M 175.5,275.5 L 200.5,275.5 L 200.5,300.5"
     id="path25081" />
  <path
     style="fill:none;fill-rule:evenodd;stroke:black;stroke-width:1px;stroke-linecap:butt;stroke-linejoin:miter;stroke-opacity:1"
     d="M 325.5,275.5 L 300.5,275.5 L 300.5,250.5 L 325.5,250.5 L 325.5,225.5"
     id="path25083" />
</svg>
